<svg xmlns="http://www.w3.org/2000/svg" width="28" height="28" viewBox="0 0 28 28" role="img" aria-label="this or that">
<g transform="translate(0.000000,28.000000) scale(0.012500,-0.012500)"
fill="#8F9DB2" stroke="none">
<path d="M1097 2068 c-24 -19 -37 -63 -37 -129 l0 -59 -134 0 c-128 0 -136 -1
-150 -22 -14 -19 -16 -69 -16 -340 0 -391 -16 -358 170 -358 l130 0 0 -40 0
-40 -341 0 c-196 0 -348 -4 -358 -9 -10 -6 -42 -45 -71 -88 -29 -43 -58 -82
-65 -88 -6 -5 -30 -38 -53 -72 -53 -78 -56 -114 -16 -176 61 -96 196 -277 214
-287 11 -6 148 -10 354 -10 l336 0 0 -50 c0 -68 22 -118 54 -126 69 -17 105
27 103 123 l-2 53 71 0 c114 0 108 -17 112 349 2 168 0 316 -3 328 -10 42 -32
53 -108 53 l-72 0 1 37 1 38 327 3 326 2 71 95 c38 52 80 106 93 120 80 86 99
156 57 205 -11 14 -64 84 -117 155 -53 72 -99 132 -101 135 -3 3 -151 7 -330
10 l-326 5 0 60 c1 98 -22 135 -79 135 -13 0 -32 -6 -41 -12z"/>
</g>
</svg>
